<!DOCTYPE svg PUBLIC "-//W3C//DTD SVG 1.1//EN" "http://www.w3.org/Graphics/SVG/1.1/DTD/svg11.dtd">
<!-- Uploaded to: SVG Repo, www.svgrepo.com, Transformed by: SVG Repo Mixer Tools -->
<svg width="75px" height="75px" viewBox="0 0 38 38" version="1.1" xmlns="http://www.w3.org/2000/svg" xmlns:xlink="http://www.w3.org/1999/xlink" fill="#ffffff">
<g id="SVGRepo_bgCarrier" stroke-width="0"/>
<g id="SVGRepo_tracerCarrier" stroke-linecap="round" stroke-linejoin="round"/>
<g id="SVGRepo_iconCarrier"> <title>gear</title> <desc>Created with Sketch.</desc> <g id="icons" stroke="none" stroke-width="1" fill="none" fill-rule="evenodd"> <g id="ui-gambling-website-lined-icnos-casinoshunter" transform="translate(-991.000000, -281.000000)" fill="#ffffff" fill-rule="nonzero"> <g id="square-filled" transform="translate(50.000000, 120.000000)"> <path d="M962.5,161 C964.156854,161 965.5,162.343146 965.5,163.999937 L965.500061,164.970698 C965.919867,165.124369 966.332687,165.295574 966.737551,165.483787 L967.424621,164.797204 C968.596194,163.625631 970.495689,163.625631 971.667262,164.797204 L975.202796,168.332738 C976.374369,169.504311 976.374369,171.403806 975.203046,172.575128 L974.516213,173.262449 C974.704511,173.667497 974.875786,174.080508 975.029511,174.50051 L976,174.5 C977.656854,174.5 979,175.843146 979,177.5 L979,182.5 C979,184.156854 977.656854,185.5 976.000063,185.5 L975.029302,185.500061 C974.875631,185.919867 974.704425,186.332687 974.516213,186.737551 L975.202796,187.424621 C976.374369,188.596194 976.374369,190.495689 975.202796,191.667262 L971.667262,195.202796 C970.495689,196.374369 968.596194,196.374369 967.424872,195.203046 L966.737551,194.516213 C966.332687,194.704426 965.919867,194.875631 965.500061,195.029302 L965.5,196 C965.5,197.656854 964.156854,199 962.5,199 L957.5,199 C955.843146,199 954.5,197.656854 954.5,195.999474 L954.50051,195.029511 C954.080507,194.875786 953.667497,194.704511 953.262449,194.516213 L952.575379,195.202796 C951.403806,196.374369 949.504311,196.374369 948.332738,195.202796 L944.797204,191.667262 C943.625631,190.495689 943.625631,188.596194 944.796954,187.424872 L945.483787,186.737551 C945.295574,186.332687 945.124369,185.919867 944.970698,185.500061 L944,185.5 C942.343146,185.5 941,184.156854 941,182.5 L941,177.5 C941,175.843146 942.343146,174.5 944.000526,174.5 L944.970489,174.50051 C945.124214,174.080507 945.295489,173.667497 945.483787,173.262449 L944.797204,172.575379 C943.625631,171.403806 943.625631,169.504311 944.797204,168.332738 L948.332738,164.797204 C949.504311,163.625631 951.403806,163.625631 952.575128,164.796954 L953.262449,165.483787 C953.532481,165.358255 953.806052,165.240289 954.082874,165.130045 L954.50051,164.970489 L954.5,164 C954.5,162.343146 955.843146,161 957.5,161 L962.5,161 Z M962.5,163 L957.5,163 C956.947715,163 956.5,163.447715 956.5,163.999474 L956.501273,166.420434 L955.800477,166.640493 C955.01462,166.887262 954.253653,167.203065 953.525375,167.583668 L952.874685,167.923722 L951.161165,166.211418 C950.770641,165.820893 950.137476,165.820893 949.746952,166.211418 L946.211418,169.746952 C945.820893,170.137476 945.820893,170.770641 946.211668,171.161416 L947.923722,172.874685 L947.583668,173.525375 C947.203065,174.253653 946.887262,175.01462 946.640493,175.800477 L946.420434,176.501273 L944,176.5 C943.447715,176.5 943,176.947715 943,177.5 L943,182.5 C943,183.052285 943.447715,183.5 944.000063,183.5 L946.420827,183.500152 L946.640784,184.200449 C946.887511,184.985979 947.203215,185.746633 947.583668,186.474625 L947.923722,187.125315 L946.211418,188.838835 C945.820893,189.229359 945.820893,189.862524 946.211418,190.253048 L949.746952,193.788582 C950.137476,194.179107 950.770641,194.179107 951.161416,193.788332 L952.874685,192.076278 L953.525375,192.416332 C954.253653,192.796935 955.01462,193.112738 955.800477,193.359507 L956.501273,193.579566 L956.5,196 C956.5,196.552285 956.947715,197 957.5,197 L962.5,197 C963.052285,197 963.5,196.552285 963.5,195.999937 L963.500152,193.579173 L964.200449,193.359216 C964.985979,193.112489 965.746633,192.796785 966.474625,192.416332 L967.125315,192.076278 L968.838835,193.788582 C969.229359,194.179107 969.862524,194.179107 970.253048,193.788582 L973.788582,190.253048 C974.179107,189.862524 974.179107,189.229359 973.788332,188.838584 L972.076278,187.125315 L972.416332,186.474625 C972.796785,185.746633 973.112489,184.985979 973.359216,184.200449 L973.579173,183.500152 L976,183.5 C976.552285,183.5 977,183.052285 977,182.5 L977,177.5 C977,176.947715 976.552285,176.5 976.000526,176.5 L973.579566,176.501273 L973.359507,175.800477 C973.112738,175.01462 972.796935,174.253653 972.416332,173.525375 L972.076278,172.874685 L973.788582,171.161165 C974.179107,170.770641 974.179107,170.137476 973.788582,169.746952 L970.253048,166.211418 C969.862524,165.820893 969.229359,165.820893 968.838584,166.211668 L967.125315,167.923722 L966.474625,167.583668 C965.746633,167.203215 964.985979,166.887511 964.200449,166.640784 L963.500152,166.420827 L963.5,164 C963.5,163.447715 963.052285,163 962.5,163 Z M960,173 C963.865993,173 967,176.134007 967,180 C967,183.865993 963.865993,187 960,187 C956.134007,187 953,183.865993 953,180 C953,176.134007 956.134007,173 960,173 Z M960,175 C957.238576,175 955,177.238576 955,180 C955,182.761424 957.238576,185 960,185 C962.761424,185 965,182.761424 965,180 C965,177.238576 962.761424,175 960,175 Z" id="gear"> </path> </g> </g> </g> </g>
</svg>